<?xml version="1.0" encoding="UTF-8" standalone="no"?>
<!DOCTYPE svg PUBLIC "-//W3C//DTD SVG 1.1//EN"
 "http://www.w3.org/Graphics/SVG/1.1/DTD/svg11.dtd">
<!-- Generated by graphviz version 2.43.0 (0)
 -->
<!-- Title: %3 Pages: 1 -->
<svg width="960pt" height="332pt"
 viewBox="0.00 0.00 959.93 332.00" xmlns="http://www.w3.org/2000/svg" xmlns:xlink="http://www.w3.org/1999/xlink">
<g id="graph0" class="graph" transform="scale(1 1) rotate(0) translate(4 328)">
<title>%3</title>
<polygon fill="white" stroke="transparent" points="-4,4 -4,-328 955.93,-328 955.93,4 -4,4"/>
<!-- prob_sally_throws -->
<g id="node1" class="node">
<title>prob_sally_throws</title>
<ellipse fill="white" stroke="black" cx="527.44" cy="-306" rx="94.78" ry="18"/>
<text text-anchor="middle" x="527.44" y="-302.3" font-family="Times,serif" font-size="14.00">prob_sally_throws</text>
</g>
<!-- sally_throws -->
<g id="node7" class="node">
<title>sally_throws</title>
<ellipse fill="white" stroke="black" cx="527.44" cy="-234" rx="68.79" ry="18"/>
<text text-anchor="middle" x="527.44" y="-230.3" font-family="Times,serif" font-size="14.00">sally_throws</text>
</g>
<!-- prob_sally_throws&#45;&gt;sally_throws -->
<g id="edge1" class="edge">
<title>prob_sally_throws&#45;&gt;sally_throws</title>
<path fill="none" stroke="black" d="M527.44,-287.7C527.44,-279.98 527.44,-270.71 527.44,-262.11"/>
<polygon fill="black" stroke="black" points="530.94,-262.1 527.44,-252.1 523.94,-262.1 530.94,-262.1"/>
</g>
<!-- prob_bill_throws -->
<g id="node2" class="node">
<title>prob_bill_throws</title>
<ellipse fill="white" stroke="black" cx="174.44" cy="-234" rx="87.99" ry="18"/>
<text text-anchor="middle" x="174.44" y="-230.3" font-family="Times,serif" font-size="14.00">prob_bill_throws</text>
</g>
<!-- bill_throws -->
<g id="node8" class="node">
<title>bill_throws</title>
<ellipse fill="white" stroke="black" cx="226.44" cy="-162" rx="61.99" ry="18"/>
<text text-anchor="middle" x="226.44" y="-158.3" font-family="Times,serif" font-size="14.00">bill_throws</text>
</g>
<!-- prob_bill_throws&#45;&gt;bill_throws -->
<g id="edge2" class="edge">
<title>prob_bill_throws&#45;&gt;bill_throws</title>
<path fill="none" stroke="black" d="M187.03,-216.05C193.29,-207.63 200.98,-197.28 207.9,-187.97"/>
<polygon fill="black" stroke="black" points="210.82,-189.9 213.97,-179.79 205.2,-185.73 210.82,-189.9"/>
</g>
<!-- prob_sally_hits -->
<g id="node3" class="node">
<title>prob_sally_hits</title>
<ellipse fill="white" stroke="black" cx="360.44" cy="-234" rx="79.89" ry="18"/>
<text text-anchor="middle" x="360.44" y="-230.3" font-family="Times,serif" font-size="14.00">prob_sally_hits</text>
</g>
<!-- sally_hits -->
<g id="node9" class="node">
<title>sally_hits</title>
<ellipse fill="white" stroke="black" cx="360.44" cy="-162" rx="53.89" ry="18"/>
<text text-anchor="middle" x="360.44" y="-158.3" font-family="Times,serif" font-size="14.00">sally_hits</text>
</g>
<!-- prob_sally_hits&#45;&gt;sally_hits -->
<g id="edge3" class="edge">
<title>prob_sally_hits&#45;&gt;sally_hits</title>
<path fill="none" stroke="black" d="M360.44,-215.7C360.44,-207.98 360.44,-198.71 360.44,-190.11"/>
<polygon fill="black" stroke="black" points="363.94,-190.1 360.44,-180.1 356.94,-190.1 363.94,-190.1"/>
</g>
<!-- prob_bill_hits -->
<g id="node4" class="node">
<title>prob_bill_hits</title>
<ellipse fill="white" stroke="black" cx="73.44" cy="-162" rx="73.39" ry="18"/>
<text text-anchor="middle" x="73.44" y="-158.3" font-family="Times,serif" font-size="14.00">prob_bill_hits</text>
</g>
<!-- bill_hits -->
<g id="node10" class="node">
<title>bill_hits</title>
<ellipse fill="white" stroke="black" cx="255.44" cy="-90" rx="47.39" ry="18"/>
<text text-anchor="middle" x="255.44" y="-86.3" font-family="Times,serif" font-size="14.00">bill_hits</text>
</g>
<!-- prob_bill_hits&#45;&gt;bill_hits -->
<g id="edge5" class="edge">
<title>prob_bill_hits&#45;&gt;bill_hits</title>
<path fill="none" stroke="black" d="M111.15,-146.5C141.03,-135.01 182.74,-118.96 213.63,-107.08"/>
<polygon fill="black" stroke="black" points="215.18,-110.24 223.26,-103.38 212.67,-103.7 215.18,-110.24"/>
</g>
<!-- prob_bottle_shatters_if_sally -->
<g id="node5" class="node">
<title>prob_bottle_shatters_if_sally</title>
<ellipse fill="white" stroke="black" cx="517.44" cy="-90" rx="143.77" ry="18"/>
<text text-anchor="middle" x="517.44" y="-86.3" font-family="Times,serif" font-size="14.00">prob_bottle_shatters_if_sally</text>
</g>
<!-- bottle_shatters -->
<g id="node11" class="node">
<title>bottle_shatters</title>
<ellipse fill="white" stroke="black" cx="431.44" cy="-18" rx="81.49" ry="18"/>
<text text-anchor="middle" x="431.44" y="-14.3" font-family="Times,serif" font-size="14.00">bottle_shatters</text>
</g>
<!-- prob_bottle_shatters_if_sally&#45;&gt;bottle_shatters -->
<g id="edge8" class="edge">
<title>prob_bottle_shatters_if_sally&#45;&gt;bottle_shatters</title>
<path fill="none" stroke="black" d="M496.63,-72.05C485.56,-63.05 471.79,-51.84 459.77,-42.05"/>
<polygon fill="black" stroke="black" points="461.74,-39.15 451.77,-35.55 457.32,-44.57 461.74,-39.15"/>
</g>
<!-- prob_bottle_shatters_if_bill -->
<g id="node6" class="node">
<title>prob_bottle_shatters_if_bill</title>
<ellipse fill="white" stroke="black" cx="815.44" cy="-90" rx="136.48" ry="18"/>
<text text-anchor="middle" x="815.44" y="-86.3" font-family="Times,serif" font-size="14.00">prob_bottle_shatters_if_bill</text>
</g>
<!-- prob_bottle_shatters_if_bill&#45;&gt;bottle_shatters -->
<g id="edge9" class="edge">
<title>prob_bottle_shatters_if_bill&#45;&gt;bottle_shatters</title>
<path fill="none" stroke="black" d="M738.66,-75C669.65,-62.42 569.12,-44.1 502.07,-31.87"/>
<polygon fill="black" stroke="black" points="502.48,-28.39 492.02,-30.04 501.23,-35.28 502.48,-28.39"/>
</g>
<!-- sally_throws&#45;&gt;sally_hits -->
<g id="edge4" class="edge">
<title>sally_throws&#45;&gt;sally_hits</title>
<path fill="none" stroke="black" d="M492.43,-218.33C466.08,-207.28 429.87,-192.1 402.04,-180.44"/>
<polygon fill="black" stroke="black" points="403.15,-177.11 392.58,-176.47 400.45,-183.56 403.15,-177.11"/>
</g>
<!-- bill_throws&#45;&gt;bill_hits -->
<g id="edge6" class="edge">
<title>bill_throws&#45;&gt;bill_hits</title>
<path fill="none" stroke="black" d="M233.46,-144.05C236.73,-136.18 240.69,-126.62 244.34,-117.79"/>
<polygon fill="black" stroke="black" points="247.69,-118.85 248.29,-108.28 241.23,-116.17 247.69,-118.85"/>
</g>
<!-- sally_hits&#45;&gt;bill_hits -->
<g id="edge7" class="edge">
<title>sally_hits&#45;&gt;bill_hits</title>
<path fill="none" stroke="black" d="M337.4,-145.64C322.53,-135.72 302.99,-122.7 286.72,-111.85"/>
<polygon fill="black" stroke="black" points="288.33,-108.72 278.07,-106.09 284.45,-114.54 288.33,-108.72"/>
</g>
<!-- sally_hits&#45;&gt;bottle_shatters -->
<g id="edge10" class="edge">
<title>sally_hits&#45;&gt;bottle_shatters</title>
<path fill="none" stroke="black" d="M357.19,-143.87C354.51,-125.12 352.81,-94.72 364.44,-72 370.85,-59.48 381.71,-48.96 392.83,-40.68"/>
<polygon fill="black" stroke="black" points="395.11,-43.37 401.33,-34.79 391.12,-37.62 395.11,-43.37"/>
</g>
<!-- bill_hits&#45;&gt;bottle_shatters -->
<g id="edge11" class="edge">
<title>bill_hits&#45;&gt;bottle_shatters</title>
<path fill="none" stroke="black" d="M286.91,-76.49C313.94,-65.73 353.32,-50.07 384.15,-37.81"/>
<polygon fill="black" stroke="black" points="385.83,-40.91 393.83,-33.96 383.24,-34.4 385.83,-40.91"/>
</g>
</g>
</svg>
